<?xml version="1.0" encoding="UTF-8"?>
<svg version="1.1" xmlns="http://www.w3.org/2000/svg" width="512" height="512">
<path d="M0 0 C1.06992188 0.37382813 2.13984375 0.74765625 3.2421875 1.1328125 C25.58899629 9.71899094 42.29866818 26.60540222 52.3046875 48.03125 C54.73652999 53.52511343 56.48694982 59.18670193 58 65 C59.22976563 64.72285156 60.45953125 64.44570312 61.7265625 64.16015625 C63.35935584 63.79418533 64.99216941 63.42830468 66.625 63.0625 C67.83736328 62.78889648 67.83736328 62.78889648 69.07421875 62.50976562 C69.86699219 62.33251953 70.65976562 62.15527344 71.4765625 61.97265625 C72.19924316 61.81031494 72.92192383 61.64797363 73.66650391 61.48071289 C91.54787515 57.79705313 114.40287947 57.99862478 132 63 C132.79696289 63.22042969 133.59392578 63.44085938 134.41503906 63.66796875 C152.04277313 68.68739133 168.74188044 76.34372708 183 88 C183.54994629 88.44601563 184.09989258 88.89203125 184.66650391 89.3515625 C212.32818987 111.92144644 231.35674025 144.08890288 235 180 C235.26083433 184.96943661 235.24854304 189.94031061 235.20581055 194.91503906 C235.18723475 197.15701375 235.18530381 199.39858037 235.18554688 201.640625 C235.14823081 212.55530757 235.14823081 212.55530757 234 216 C235.8871875 216.556875 235.8871875 216.556875 237.8125 217.125 C247.81201225 220.49474159 256.12173828 226.06969173 264 233 C265.14275391 233.99966797 265.14275391 233.99966797 266.30859375 235.01953125 C281.13981156 248.87399641 290.42246113 269.04535298 291.38671875 289.24609375 C292.09197435 315.85734975 284.7824714 337.51442589 266.375 357.125 C249.56370412 373.3193676 228.16798151 380.49662171 205.10514832 380.38768005 C203.64514821 380.39186267 202.18515135 380.39734524 200.72516042 380.40399987 C196.74919867 380.41835174 192.77344601 380.41424219 188.79747331 380.40683305 C184.49535939 380.40207802 180.1932892 380.41463181 175.89118958 380.42485046 C167.47673125 380.44199863 159.06234772 380.44288671 150.64787646 380.43763756 C143.80430388 380.43358696 136.96075332 380.43504997 130.11718178 380.44038582 C129.14108483 380.44113424 128.16498789 380.44188266 127.15931225 380.44265376 C125.17600589 380.44418533 123.19269953 380.44572368 121.20939318 380.44726873 C102.63290026 380.46097953 84.05644951 380.45556622 65.47995756 380.44408352 C48.51045263 380.43415408 31.54105679 380.44708936 14.57156869 380.47101771 C-2.88084298 380.49544033 -20.33320391 380.50500872 -37.78563231 380.49836498 C-47.57255742 380.49487961 -57.35939868 380.49705965 -67.14631081 380.51461601 C-75.47817426 380.52937765 -83.80989484 380.52992192 -92.14175562 380.5125451 C-96.38685117 380.50406498 -100.63169193 380.50181178 -104.87677383 380.51719666 C-108.77363199 380.53114383 -112.67001948 380.52615379 -116.5668511 380.50695742 C-117.9657945 380.50322752 -119.36477653 380.50603098 -120.7636852 380.51656907 C-133.72343873 380.60714291 -146.78734805 378.48948974 -158.3125 372.25 C-158.97072754 371.90565918 -159.62895508 371.56131836 -160.30712891 371.20654297 C-180.80501767 360.20999323 -194.42087642 343.41721766 -202.1875 321.67578125 C-208.67817543 300.10780769 -206.49641352 276.56074418 -196.20068359 256.65917969 C-190.03744363 245.30213486 -181.85709153 233.19491595 -169.9375 227.5 C-167.59254257 226.22010442 -167.59254257 226.22010442 -166 224 C-165.25189691 219.55699749 -165.18038508 215.29066746 -165.140625 210.796875 C-164.90830853 193.72844762 -156.43540584 177.12841379 -146 164 C-145.36964844 163.19433594 -144.73929688 162.38867188 -144.08984375 161.55859375 C-133.16670438 148.51207776 -118.98866168 140.32955389 -103 135 C-104.50945434 130.99471522 -106.38579091 127.28731513 -108.375 123.5 C-118.43999164 103.84058775 -120.77637623 78.90042077 -114.3984375 57.640625 C-111.77533525 50.81176663 -108.60772707 44.35910239 -105 38 C-104.51660156 37.14792969 -104.03320312 36.29585937 -103.53515625 35.41796875 C-91.08683412 15.39240707 -70.5775553 2.63642777 -48 -3 C-32.74442336 -6.49122968 -14.70115107 -5.21873808 0 0 Z " fill="#C3E1FE" transform="translate(213,84)"/>
<path d="M0 0 C1.06992188 0.37382813 2.13984375 0.74765625 3.2421875 1.1328125 C25.58899629 9.71899094 42.29866818 26.60540222 52.3046875 48.03125 C54.73652999 53.52511343 56.48694982 59.18670193 58 65 C59.22976563 64.72285156 60.45953125 64.44570312 61.7265625 64.16015625 C63.35935584 63.79418533 64.99216941 63.42830468 66.625 63.0625 C67.83736328 62.78889648 67.83736328 62.78889648 69.07421875 62.50976562 C69.86699219 62.33251953 70.65976562 62.15527344 71.4765625 61.97265625 C72.19924316 61.81031494 72.92192383 61.64797363 73.66650391 61.48071289 C91.54787515 57.79705313 114.40287947 57.99862478 132 63 C132.79696289 63.22042969 133.59392578 63.44085938 134.41503906 63.66796875 C152.04277313 68.68739133 168.74188044 76.34372708 183 88 C183.54994629 88.44601563 184.09989258 88.89203125 184.66650391 89.3515625 C212.32818987 111.92144644 231.35674025 144.08890288 235 180 C235.26083433 184.96943661 235.24854304 189.94031061 235.20581055 194.91503906 C235.18723475 197.15701375 235.18530381 199.39858037 235.18554688 201.640625 C235.14823081 212.55530757 235.14823081 212.55530757 234 216 C235.8871875 216.556875 235.8871875 216.556875 237.8125 217.125 C247.81201225 220.49474159 256.12173828 226.06969173 264 233 C265.14275391 233.99966797 265.14275391 233.99966797 266.30859375 235.01953125 C281.13981156 248.87399641 290.42246113 269.04535298 291.38671875 289.24609375 C292.09197435 315.85734975 284.7824714 337.51442589 266.375 357.125 C249.56370412 373.3193676 228.16798151 380.49662171 205.10514832 380.38768005 C203.64514821 380.39186267 202.18515135 380.39734524 200.72516042 380.40399987 C196.74919867 380.41835174 192.77344601 380.41424219 188.79747331 380.40683305 C184.49535939 380.40207802 180.1932892 380.41463181 175.89118958 380.42485046 C167.47673125 380.44199863 159.06234772 380.44288671 150.64787646 380.43763756 C143.80430388 380.43358696 136.96075332 380.43504997 130.11718178 380.44038582 C129.14108483 380.44113424 128.16498789 380.44188266 127.15931225 380.44265376 C125.17600589 380.44418533 123.19269953 380.44572368 121.20939318 380.44726873 C102.63290026 380.46097953 84.05644951 380.45556622 65.47995756 380.44408352 C48.51045263 380.43415408 31.54105679 380.44708936 14.57156869 380.47101771 C-2.88084298 380.49544033 -20.33320391 380.50500872 -37.78563231 380.49836498 C-47.57255742 380.49487961 -57.35939868 380.49705965 -67.14631081 380.51461601 C-75.47817426 380.52937765 -83.80989484 380.52992192 -92.14175562 380.5125451 C-96.38685117 380.50406498 -100.63169193 380.50181178 -104.87677383 380.51719666 C-108.77363199 380.53114383 -112.67001948 380.52615379 -116.5668511 380.50695742 C-117.9657945 380.50322752 -119.36477653 380.50603098 -120.7636852 380.51656907 C-133.72343873 380.60714291 -146.78734805 378.48948974 -158.3125 372.25 C-158.97072754 371.90565918 -159.62895508 371.56131836 -160.30712891 371.20654297 C-180.80501767 360.20999323 -194.42087642 343.41721766 -202.1875 321.67578125 C-208.67817543 300.10780769 -206.49641352 276.56074418 -196.20068359 256.65917969 C-190.03744363 245.30213486 -181.85709153 233.19491595 -169.9375 227.5 C-167.59254257 226.22010442 -167.59254257 226.22010442 -166 224 C-165.25189691 219.55699749 -165.18038508 215.29066746 -165.140625 210.796875 C-164.90830853 193.72844762 -156.43540584 177.12841379 -146 164 C-145.36964844 163.19433594 -144.73929688 162.38867188 -144.08984375 161.55859375 C-133.16670438 148.51207776 -118.98866168 140.32955389 -103 135 C-104.50945434 130.99471522 -106.38579091 127.28731513 -108.375 123.5 C-118.43999164 103.84058775 -120.77637623 78.90042077 -114.3984375 57.640625 C-111.77533525 50.81176663 -108.60772707 44.35910239 -105 38 C-104.51660156 37.14792969 -104.03320312 36.29585937 -103.53515625 35.41796875 C-91.08683412 15.39240707 -70.5775553 2.63642777 -48 -3 C-32.74442336 -6.49122968 -14.70115107 -5.21873808 0 0 Z M48 87 C47.38608398 87.28713867 46.77216797 87.57427734 46.13964844 87.87011719 C17.77414394 101.37402437 -3.18867669 125.92596596 -14.6328125 154.984375 C-19.41762153 168.56521021 -21.44918012 181.62623618 -21 196 C-26.28 196 -31.56 196 -37 196 C-36.52286582 191.62476962 -36.04337231 187.24981975 -35.5625 182.875 C-35.36043945 181.01875 -35.36043945 181.01875 -35.15429688 179.125 C-35.02216797 177.92617188 -34.89003906 176.72734375 -34.75390625 175.4921875 C-34.63345947 174.39245605 -34.5130127 173.29272461 -34.38891602 172.15966797 C-34.01079156 169.08767381 -33.53221997 166.04871665 -33 163 C-49.45566845 150.61362917 -67.54347697 145.99315924 -88 148 C-101.61834765 150.37825614 -114.70792645 156.79130261 -125 166 C-126.12148437 166.98226562 -126.12148437 166.98226562 -127.265625 167.984375 C-135.7301403 175.87307293 -142.10240083 186.10185862 -146 197 C-146.42925781 198.175625 -146.42925781 198.175625 -146.8671875 199.375 C-148.45876905 204.58932431 -149.06672512 209.42181099 -149.0546875 214.859375 C-149.02915145 231.57910223 -149.02915145 231.57910223 -151.9296875 235.82421875 C-154.54094325 237.5691233 -157.11544393 238.76718143 -160 240 C-174.28558712 249.87354672 -185.05186062 265.45540314 -188.59375 282.62890625 C-190.9975433 302.57576796 -187.72452517 320.55266913 -175.81640625 337.01953125 C-163.94019071 352.12607741 -148.80749185 360.67374128 -130 364 C-125.12185303 364.39348267 -120.27405334 364.40613045 -115.38194275 364.38095093 C-113.9520908 364.38441599 -112.52224153 364.38918621 -111.09239775 364.39513266 C-107.19991793 364.40755577 -103.30766123 364.40151237 -99.41518104 364.39217401 C-95.20312865 364.38534794 -90.99111294 364.39588223 -86.77906799 364.40411377 C-78.54241164 364.4174152 -70.30583755 364.41458952 -62.06917804 364.40587585 C-55.37240644 364.39908599 -48.6756578 364.3981882 -41.97888374 364.4014473 C-40.54631033 364.40213684 -40.54631033 364.40213684 -39.08479603 364.40284032 C-37.14432274 364.40379955 -35.20384946 364.40477219 -33.26337618 364.4057581 C-15.09140646 364.41430136 3.08051776 364.40449434 21.25248002 364.388357 C36.82890593 364.37495263 52.40526475 364.37728496 67.98168945 364.39111328 C86.09255417 364.4071842 104.20337908 364.41347974 122.31424993 364.40427649 C124.24706645 364.40332089 126.17988298 364.40237778 128.11269951 364.4014473 C129.06355828 364.40098447 130.01441704 364.40052164 130.99408971 364.40004479 C137.67966904 364.3974596 144.36522302 364.40181569 151.05079842 364.40888596 C159.2026987 364.41731787 167.35451238 364.41498524 175.5064028 364.39904372 C179.66185001 364.39118406 183.81715304 364.38802991 187.97259903 364.39799118 C191.78282954 364.4069865 195.59278337 364.40192646 199.40298908 364.38605852 C201.42057107 364.38116522 203.43817255 364.39086368 205.45573384 364.40123022 C222.14184429 364.29432969 236.81867539 359.23165756 250 349 C250.92039062 348.32710938 250.92039062 348.32710938 251.859375 347.640625 C264.35271553 337.89811174 272.54615879 321.52651741 275 306 C276.59756287 284.41368662 271.76313588 266.19442445 257.3671875 249.49609375 C248.62248916 240.27519897 237.70098587 233.62920571 225.375 230.375 C222.30917971 229.52141906 220.90718619 228.9287708 218.3125 226.9375 C216.0663499 221.91040216 217.34901731 216.93361698 218.51147461 211.69506836 C223.69193317 183.11581698 214.54425214 152.85172414 199.0234375 128.95703125 C194.4827602 122.54400294 189.38105882 116.71614307 184 111 C183.19175781 110.09507812 183.19175781 110.09507812 182.3671875 109.171875 C163.51634105 88.90011047 132.9373117 76.80661074 105.6953125 75.62890625 C85.22449111 75.24867203 66.59258988 78.26272502 48 87 Z " fill="#010100" transform="translate(213,84)"/>
<path d="M0 0 C1.56234375 0.49306641 1.56234375 0.49306641 3.15625 0.99609375 C21.34021228 7.25224268 34.99931227 20.22105195 44 37 C47.27281384 43.99758768 49.20727666 50.35352275 50 58 C49.1028125 58.43828125 48.205625 58.8765625 47.28125 59.328125 C36.98556095 64.50317727 27.93380701 70.74009632 19 78 C18.45214844 78.44182617 17.90429688 78.88365234 17.33984375 79.33886719 C0.92374156 92.802951 -10.98898968 111.49493141 -19 131 C-22.93130422 130.40606195 -25.78472203 129.17075407 -29.25 127.25 C-36.83412486 123.34017165 -44.77406403 121.1307636 -53 119 C-53.82113281 118.78601563 -54.64226562 118.57203125 -55.48828125 118.3515625 C-58.36291733 117.94920286 -61.13392884 118.08291048 -64.02807617 118.16918945 C-69.43351463 118.21373487 -73.5233054 118.14081117 -77.90234375 114.7578125 C-83.39901992 107.67320766 -86.99679954 99.40318592 -90 91 C-90.51046875 89.60587891 -90.51046875 89.60587891 -91.03125 88.18359375 C-96.69068249 69.76423709 -92.84553448 50.6414932 -84.41601562 33.83886719 C-80.65827874 26.85875157 -75.67127853 21.46963307 -70 16 C-69.36707031 15.33613281 -68.73414063 14.67226562 -68.08203125 13.98828125 C-50.9877028 -2.8041606 -22.18284863 -7.69545451 0 0 Z " fill="#FDD301" transform="translate(205,99)"/>
<path d="M0 0 C0.79567383 0.23106445 1.59134766 0.46212891 2.41113281 0.70019531 C23.76943328 7.01006111 40.70744192 16.66252291 57 32 C57.60328125 32.53882813 58.2065625 33.07765625 58.828125 33.6328125 C74.28908759 48.01006275 84.09324187 68.79695673 89 89 C89.25523437 89.96292969 89.51046875 90.92585938 89.7734375 91.91796875 C90.71463482 95.66442303 91.12401909 98.31028517 90 102 C89.50371094 100.77925781 89.00742187 99.55851562 88.49609375 98.30078125 C82.48053296 83.6536145 76.10886087 70.35889764 66 58 C64.80117188 56.53433594 64.80117188 56.53433594 63.578125 55.0390625 C47.88100246 36.91602102 26.96111487 24.52109391 4 18 C4 21.63 4 25.26 4 29 C-1.28 29 -6.56 29 -12 29 C-12 24.05 -12 19.1 -12 14 C-17.28 13.67 -22.56 13.34 -28 13 C-28 18.28 -28 23.56 -28 29 C-30.475 29.226875 -32.95 29.45375 -35.5 29.6875 C-58.92186113 32.2624767 -80.01482062 43.0921393 -95.56640625 60.83984375 C-100.22745619 66.89247521 -104.12364937 73.42669903 -108 80 C-113.01508715 78.45941767 -117.6147081 76.97068161 -122 74 C-121.44890154 69.46403578 -119.53386523 66.17995722 -117.0625 62.4375 C-116.66208496 61.82688721 -116.26166992 61.21627441 -115.84912109 60.5871582 C-108.89996309 50.19036636 -101.06813565 41.49724224 -91 34 C-90.10667969 33.32710937 -89.21335938 32.65421875 -88.29296875 31.9609375 C-84.01745572 28.84564615 -80.23131832 26.23899644 -75 25 C-75 24.01 -75 23.02 -75 22 C-87.92769052 28.3194914 -99.97338397 34.61814557 -111 44 C-111.89847656 44.75152344 -112.79695313 45.50304687 -113.72265625 46.27734375 C-125.81137575 56.76783592 -133.56575281 69.01140444 -141 83 C-141.66 83 -142.32 83 -143 83 C-141.2010755 75.34817226 -138.70459509 68.61410675 -135 61.6875 C-134.516521 60.77814697 -134.03304199 59.86879395 -133.53491211 58.93188477 C-129.14506931 50.89509564 -124.13169264 43.78820443 -118 37 C-117.29472168 36.21423584 -117.29472168 36.21423584 -116.57519531 35.41259766 C-101.72745476 19.14240938 -82.16542937 7.11795621 -61 1 C-60.33403809 0.80535156 -59.66807617 0.61070312 -58.98193359 0.41015625 C-40.2776989 -4.84678595 -18.7058489 -5.52940188 0 0 Z " fill="#B0D7FA" transform="translate(340,163)"/>
<path d="M0 0 C0 5.28 0 10.56 0 16 C-2.475 16.226875 -4.95 16.45375 -7.5 16.6875 C-30.92186113 19.2624767 -52.01482062 30.0921393 -67.56640625 47.83984375 C-72.22745619 53.89247521 -76.12364937 60.42669903 -80 67 C-85.01508715 65.45941767 -89.6147081 63.97068161 -94 61 C-93.44890154 56.46403578 -91.53386523 53.17995722 -89.0625 49.4375 C-88.66208496 48.82688721 -88.26166992 48.21627441 -87.84912109 47.5871582 C-80.89397714 37.18141065 -73.05492522 28.5265792 -63 21 C-62.2575 20.40832031 -61.515 19.81664062 -60.75 19.20703125 C-47.86826708 9.43391096 -32.77219674 3.84611069 -17 1 C-15.97261719 0.80535156 -14.94523437 0.61070312 -13.88671875 0.41015625 C-9.24483599 -0.24938054 -4.68394682 -0.0571213 0 0 Z " fill="#030304" transform="translate(312,176)"/>
<path d="M0 0 C0.66 0.33 1.32 0.66 2 1 C1.18208984 1.56654297 1.18208984 1.56654297 0.34765625 2.14453125 C-16.21370196 14.23290724 -25.66505267 33.22833369 -29.4921875 53.08984375 C-32.32596198 74.90990725 -28.25999759 94.70087409 -18 114 C-17.505 114.99 -17.505 114.99 -17 116 C-21.20953134 116.76925446 -24.80888935 116.95825634 -29 116 C-36.68076573 109.53564513 -40.70164813 99.22904224 -44 90 C-44.51046875 88.60587891 -44.51046875 88.60587891 -45.03125 87.18359375 C-50.69068249 68.76423709 -46.84553448 49.6414932 -38.41601562 32.83886719 C-34.65827874 25.85875157 -29.67127853 20.46963307 -24 15 C-23.36707031 14.33613281 -22.73414063 13.67226562 -22.08203125 12.98828125 C-15.9859728 6.99987946 -7.83336064 3.22655587 0 0 Z " fill="#F6C300" transform="translate(159,100)"/>
<path d="M0 0 C1.69749197 1.29386111 3.37749264 2.61326808 5 4 C4.01 8.455 4.01 8.455 3 13 C1.74445313 12.51789063 0.48890625 12.03578125 -0.8046875 11.5390625 C-23.52620099 2.90715952 -45.07902518 0.29328785 -68.0625 10.5625 C-89.49496928 21.05072965 -101.3033214 36.03583032 -110 58 C-110.33 58 -110.66 58 -111 58 C-112.2024134 42.96983252 -104.35262052 26.41961301 -94.859375 15.078125 C-94.24578125 14.39234375 -93.6321875 13.7065625 -93 13 C-92.34515625 12.25234375 -91.6903125 11.5046875 -91.015625 10.734375 C-66.94518263 -15.09303397 -29.31702863 -17.41638759 0 0 Z " fill="#B0D6F9" transform="translate(175,243)"/>
<path d="M0 0 C14.04289286 0.95746997 27.28567139 9.73507424 36.8125 19.6875 C48.34515657 33.36132994 54.23698783 49.05039732 54.0625 66.875 C54.05798828 67.75414062 54.05347656 68.63328125 54.04882812 69.5390625 C54.03712337 71.69273803 54.01919069 73.84637817 54 76 C53.67 76 53.34 76 53 76 C52.97421875 75.18917969 52.9484375 74.37835938 52.921875 73.54296875 C51.97404372 55.03871718 43.15346908 40.5863515 30 28 C21.23063318 20.47117775 9.96207024 15.44666319 -1 12 C-0.67 8.04 -0.34 4.08 0 0 Z " fill="#AFD5F8" transform="translate(434,314)"/>
<path d="M0 0 C2.66509971 1.33665111 4.51954442 3.13748626 6.63696289 5.22753906 C7.4477832 6.00742188 8.25860352 6.78730469 9.09399414 7.59082031 C10.82446289 9.91503906 10.82446289 9.91503906 10.72583008 11.7487793 C9.45169035 14.81092495 7.4950514 16.57985035 5.13305664 18.89941406 C4.66835464 19.35987122 4.20365265 19.82032837 3.72486877 20.29473877 C2.2441447 21.75871718 0.7533177 23.21189947 -0.73803711 24.66503906 C-1.74588375 25.65783355 -2.75305344 26.65131576 -3.75952148 27.64550781 C-6.22373172 30.07670379 -8.6971104 32.49832774 -11.17553711 34.91503906 C-16.05603636 30.97309736 -20.23359541 26.79553831 -24.17553711 21.91503906 C-21.13163687 18.74766559 -18.07172735 15.59694872 -14.99584961 12.46069336 C-13.95156566 11.39124399 -12.91181042 10.31735311 -11.87670898 9.23901367 C-10.38901782 7.69076037 -8.88583484 6.15914771 -7.37866211 4.62988281 C-6.47792969 3.70296631 -5.57719727 2.7760498 -4.64916992 1.82104492 C-2.17553711 -0.08496094 -2.17553711 -0.08496094 0 0 Z " fill="#000000" transform="translate(275.175537109375,66.0849609375)"/>
<path d="M0 0 C3.06214566 1.27413972 4.83107105 3.23077868 7.15063477 5.59277344 C7.8413205 6.28982643 7.8413205 6.28982643 8.54595947 7.0009613 C10.00993788 8.48168537 11.46312017 9.97251238 12.91625977 11.46386719 C13.90905426 12.47171383 14.90253647 13.47888352 15.89672852 14.48535156 C18.32792449 16.9495618 20.74954845 19.42294048 23.16625977 21.90136719 C19.22431807 26.78186643 15.04675901 30.95942549 10.16625977 34.90136719 C6.99888629 31.85746695 3.84816943 28.79755743 0.71191406 25.72167969 C-0.35753531 24.67739574 -1.43142619 23.6376405 -2.50976562 22.60253906 C-4.05801893 21.1148479 -5.58963159 19.61166492 -7.11889648 18.10449219 C-8.04581299 17.20375977 -8.97272949 16.30302734 -9.92773438 15.375 C-11.83374023 12.90136719 -11.83374023 12.90136719 -11.7487793 10.72583008 C-10.41212819 8.06073037 -8.61129303 6.20628565 -6.52124023 4.08886719 C-5.35141602 2.87263672 -5.35141602 2.87263672 -4.15795898 1.63183594 C-1.83374023 -0.09863281 -1.83374023 -0.09863281 0 0 Z " fill="#000000" transform="translate(93.833740234375,66.0986328125)"/>
<path d="M0 0 C10.56 0 21.12 0 32 0 C32 5.28 32 10.56 32 16 C21.44 16 10.88 16 0 16 C0 10.72 0 5.44 0 0 Z " fill="#000000" transform="translate(48,160)"/>
<path d="M0 0 C5.28 0 10.56 0 16 0 C16 10.56 16 21.12 16 32 C10.72 32 5.44 32 0 32 C0 21.44 0 10.88 0 0 Z " fill="#000000" transform="translate(176,32)"/>
<path d="M0 0 C1.7619026 3.52380519 1.48865492 6.89838932 1.16015625 10.76171875 C-1.04924321 16.9286957 -6.99745845 19.61632352 -12.35009766 22.94189453 C-23.06370425 29.81268041 -31.65896757 44.96623614 -35 57 C-35.62883493 61.67134522 -35.9233396 66.28886967 -36 71 C-36.33 71 -36.66 71 -37 71 C-37.80126307 49.07655221 -34.11345343 31.70914234 -19.39453125 14.5078125 C-13.69876656 8.54259075 -7.29817379 3.80774285 0 0 Z " fill="#ADD3F6" transform="translate(61,319)"/>
<path d="M0 0 C5.28 0 10.56 0 16 0 C16 5.28 16 10.56 16 16 C10.72 16 5.44 16 0 16 C0 10.72 0 5.44 0 0 Z " fill="#000000" transform="translate(328,176)"/>
</svg>
